<?xml version="1.0" encoding="utf-8"?>
<!-- Generator: Adobe Illustrator 24.1.2, SVG Export Plug-In . SVG Version: 6.00 Build 0)  -->
<svg version="1.1" id="Layer_1" xmlns="http://www.w3.org/2000/svg" xmlns:xlink="http://www.w3.org/1999/xlink" x="0px" y="0px"
	 viewBox="0 0 66.9238434 24" style="enable-background:new 0 0 66.9238434 24;" xml:space="preserve">
<style type="text/css">
	.st0{fill:#6E7781;}
</style>
<g>
	<path class="st0" d="M41.3516159,23.794199c-2.0198097-0.5592346-3.1341553-1.940361-3.5287018-3.9390259
		c-0.2268333-1.1490707-0.1670837-2.3062477,0.15205-3.4515362c0.5562477-1.9962149,2.392437-3.3878794,4.4611168-3.5097466
		c0.9262161-0.0545645,1.8492432-0.0545235,2.7627563,0.176815c1.2986641,0.3288736,2.3021355,1.0536013,3.0087204,2.214282
		c1.7184486-3.2762184,8.5161018-3.4396019,10.1588783,0.6980677c0-0.9226418,0.0135574-1.7091103-0.0063095-2.4947367
		c-0.0092049-0.3642015,0.0602303-0.5173178,0.5405083-0.4714689c0.6904831,0.0659151,1.3863792,0.0765171,2.0768929,0.0108986
		c0.5647507-0.0536671,0.723835-0.0113754,0.719696,0.460784c-0.0209656,2.3951035,0.0002785,4.790576-0.020546,7.1856813
		c-0.0035782,0.4126186,0.0909119,0.534668,0.5168457,0.5239544c1.5761909-0.0396557,3.1534615-0.0366192,4.73032-0.0496235
		v2.6759968c-2.6875229,0.0010014-5.3751678-0.0097256-8.0624771,0.0147057
		c-0.4412689,0.0040131-0.5186729-0.1401501-0.5032425-0.5337925c0.0299149-0.7627468,0.0087433-1.5275002,0.0087433-2.29142
		c-0.6934395,1.4109879-1.7462845,2.3346062-3.2306404,2.7767754c-0.3670654,0.1093426-0.6797371,0.1412868-1.1111298,0.2029057
		c-0.0281067,0.0040131-0.0557556,0.0063839-0.0841446,0.0062809c-0.6855965-0.0024662-2.0908546-0.0659389-2.1763039-0.0800095
		c-1.5169029-0.2497673-2.7351341-0.959856-3.5223694-2.3275261c-1.1353607,1.4093418-1.7154503,1.8346596-2.8755379,2.1851425
		C45.0435829,23.8752346,41.6241341,23.8696518,41.3516159,23.794199z M45.6036797,18.3281994
		c-0.0388451-0.3666325-0.0525589-0.7401447-0.1217651-1.1030846c-0.2001228-1.0495491-0.8960915-1.7302246-1.8687897-1.8612499
		c-0.9828796-0.1323977-1.8875961,0.2985706-2.2409782,1.1718884c-0.5129776,1.2677288-0.5086021,2.5733376,0.0027275,3.8409901
		c0.3227615,0.8001728,1.1177521,1.2089691,2.0356674,1.1592941c0.9156799-0.049551,1.5863609-0.4423084,1.91082-1.3428478
		C45.5391579,19.5886707,45.5281487,18.9558678,45.6036797,18.3281994z M50.8355904,18.3664722
		c0.0075874,0.6453876,0.0190544,1.2355022,0.2399902,1.8022137c0.3567467,0.9151134,1.1224556,1.4148121,2.1265793,1.3682137
		c1.0658989-0.0494652,1.7608566-0.5947399,2.0020943-1.5953732c0.2066383-0.8571339,0.225563-1.7300167,0.1010933-2.5973377
		c-0.1720657-1.1989651-0.9907951-1.9530506-2.1028099-1.9899397c-1.1801834-0.0391512-1.9406471,0.5817709-2.2480774,1.7945471
		C50.8474197,17.5710564,50.8672714,17.9948139,50.8355904,18.3664722z"/>
	<path class="st0" d="M39.4436874,0.0304758c0.3771973,0.0835841,0.7560654,0.1617345,1.1241913,0.2748308
		c1.1902466,0.3656732,1.8676643,1.2051009,2.1464157,2.3966889c0.0772438,0.330214,0.0789566,0.5262156-0.380455,0.5243418
		c-0.7781219-0.0031736-1.5580902,0.0634997-2.3340721,0.1353984c-0.2653236,0.0245836-0.3358841-0.051918-0.4175072-0.2923484
		c-0.3047142-0.8975923-1.1306725-1.2894161-2.0405579-1.0229952c-0.3953323,0.1157565-0.684082,0.3441124-0.7088509,0.7554884
		c-0.0251198,0.4171126,0.29739,0.6254146,0.6518936,0.7238441c0.8538475,0.2370727,1.7174721,0.438796,2.5723457,0.672375
		c0.3550453,0.0970111,0.7070465,0.2176733,1.0445099,0.3642244c1.1958466,0.5193267,1.9842758,1.3823314,2.0440865,2.7273183
		c0.0596313,1.341053-0.5098267,2.4052753-1.6432304,3.1424828c-0.5177498,0.3367624-1.096508,0.5268574-1.7078857,0.6122093
		c-1.3166656,0.1838217-2.6305008,0.1838913-3.9139252-0.1918192c-1.3629265-0.398984-2.3769569-1.7167416-2.5093536-3.1629162
		c-0.0174217-0.1903601,0.0180702-0.2583232,0.2183838-0.2704973C34.478775,7.365068,35.3678322,7.3056803,36.25494,7.2263021
		c0.2857437-0.025569,0.281723,0.1562967,0.3278008,0.334877c0.3082085,1.1943655,1.2069588,1.734436,2.3922005,1.4324579
		c0.5071754-0.1292191,0.8807831-0.4308119,0.9403-0.9685459c0.0589676-0.5327129-0.2772865-0.850729-0.7297974-1.0651436
		c-0.6922913-0.3280268-1.4547195-0.4118071-2.1790733-0.628499c-0.7291222-0.2181211-1.4437752-0.46312-2.0676994-0.913269
		c-1.5450287-1.114707-1.5704956-3.3728542-0.0524521-4.5320792c0.462822-0.3534235,0.9866943-0.5703404,1.5508995-0.7086443
		c0.1622849-0.0397803,1.0559578-0.1583079,1.8215446-0.1751073C38.6370163-0.0059534,39.3457565,0.0087749,39.4436874,0.0304758z"
		/>
	<path class="st0" d="M0,20.2565441c0.9082038-0.0448914,1.8173896-0.0762558,2.7240779-0.1420288
		c0.3164897-0.0229568,0.4647021-0.0130215,0.5544593,0.3758736c0.2683783,1.1628227,1.3813653,1.7267017,2.5012126,1.3201351
		c0.4424396-0.1606312,0.7669773-0.4482327,0.8064933-0.9575138c0.0386505-0.4981327-0.2528439-0.803669-0.6508665-1.0088215
		c-0.6139488-0.3164463-1.3011127-0.408514-1.9609728-0.5813465c-0.7897265-0.2068481-1.5628576-0.4567051-2.2476077-0.9115887
		c-1.7213199-1.1434765-1.7217256-3.556426-0.0106268-4.7246265c0.5621487-0.383791,1.1892935-0.6052399,1.855698-0.6754665
		c1.2946372-0.1364317,2.5880189-0.1899576,3.8458447,0.2704754c1.2079191,0.4421673,1.7947521,1.3557701,2.0133028,2.570138
		c0.0287685,0.159853,0.0312614,0.2424784-0.1562452,0.2547941c-0.9073486,0.0596046-1.8146505,0.1205711-2.7212639,0.190239
		c-0.2538061,0.0195026-0.2416668-0.1806259-0.2951317-0.322258c-0.347374-0.920228-1.2369299-1.3318062-2.1595211-0.9877138
		c-0.3391531,0.1264906-0.5775316,0.3716879-0.5902572,0.7363539c-0.0125191,0.3587818,0.2398193,0.5876045,0.5608206,0.6788177
		c0.7275038,0.2067261,1.4657416,0.37537,2.1972051,0.5686092c0.5534716,0.1462173,1.0958915,0.3246498,1.6217432,0.5562191
		c2.6923552,1.1856136,2.3292656,4.4142094,0.4666796,5.7026367c-0.6237488,0.4314747-1.3214231,0.6484814-2.0591111,0.7663555
		c-0.0989537,0.0158119-2.7684233,0.0317516-2.9473741,0.0021973c-1.5643483-0.2583656-2.7154655-1.2646008-3.1487598-2.7647686
		C0.1630683,21.0460835,0,20.442379,0,20.2565441z"/>
	<path class="st0" d="M15.9983025,23.9110928c-1.7601595-0.4818554-3.0940132-1.8142014-3.5895729-3.4954376
		c-0.3953362-1.3412113-0.3626823-2.7194004,0.001524-4.0692806c0.5356236-1.9852257,2.2084932-3.3152866,4.2941017-3.4491796
		c0.8719578-0.0559769,1.746603-0.0753288,2.6056862,0.1212034c1.703392,0.3896847,2.6878414,1.5243816,3.232048,3.169508
		c-0.8896561,0.2044544-1.7630825,0.404398-2.6360493,0.606329c-0.227932,0.0527229-0.30896-0.0596485-0.4031982-0.259285
		c-0.4389896-0.9299812-1.1214619-1.2908478-2.1600952-1.1819687c-0.7950363,0.0833426-1.514739,0.7359753-1.7088881,1.6122227
		c-0.2276754,1.0275669-0.2166891,2.0679646,0.0222292,3.0907917c0.2101202,0.8995609,0.8215122,1.3850346,1.7302723,1.4613705
		c1.0126801,0.0850658,1.6622944-0.3047085,2.0946426-1.2173958c0.1296406-0.2736702,0.0655384-0.7239418,0.3752823-0.7974777
		c0.2669964-0.0633888,0.5984745,0.1344109,0.899025,0.2247639c0.5125809,0.1540852,1.0193844,0.3290825,1.536293,0.4664154
		c0.2851734,0.0757656,0.3679752,0.1518383,0.267313,0.4803467c-0.5557156,1.8135738-1.6920528,2.9592571-3.6048412,3.2598858
		C18.8672848,23.9475441,16.2716866,23.9859352,15.9983025,23.9110928z"/>
	<path class="st0" d="M8.0567713,6.2633185c0.9584417,0.296587,1.4514656,1.0652561,1.8825531,1.8915019
		c0.4840784,0.9278088,0.9629641,1.858326,1.4688206,2.8353968c-1.2051039,0-2.3346615-0.0124044-3.4636021,0.0084562
		c-0.2933826,0.0054207-0.3724399-0.1619806-0.4795861-0.3612804C6.8959656,9.57903,6.3197622,8.5245447,5.7476692,7.467844
		c-0.2503624-0.46244-0.5920558-0.7929897-1.1405306-0.8784723c-0.3458085-0.053896-0.4979062,0.0078816-0.488903,0.4126468
		c0.0264249,1.1880364-0.0036526,2.3772674,0.017427,3.5655169c0.0060763,0.3425312-0.0839496,0.4431133-0.4320011,0.4317379
		c-0.8351588-0.0272903-1.6720393-0.0200205-2.5077391-0.0029268c-0.2956629,0.0060472-0.4199275-0.0502319-0.4186991-0.386631
		C0.7894988,7.2481847,0.7855039,3.8865919,0.7825862,0.5250195c-0.000175-0.2018044-0.0046021-0.3533069,0.2792885-0.3454884
		c2.2638059,0.0623461,4.5330906-0.1299648,6.792222,0.1058935c1.5960741,0.1666336,2.5335379,1.0627366,2.6396999,2.4307704
		c0.1379747,1.7779944-0.6004372,2.9171789-2.19697,3.3856146C8.2090187,6.1275725,8.1103849,6.125627,8.0567713,6.2633185z
		 M4.1274672,3.3730505c0,0.2967381,0.0021267,0.593498-0.0008678,0.8902061
		C4.1250248,4.4192438,4.1206002,4.5603609,4.3455415,4.5535522C5.0472488,4.532311,5.7554054,4.6196055,6.4457321,4.418334
		c0.479321-0.13975,0.7842016-0.5427017,0.7512417-1.0360141c-0.0346889-0.5191731-0.2939172-0.8611848-0.8264623-0.967813
		C5.98633,2.3375845,5.5998378,2.3182657,5.2089672,2.3204074C4.1272974,2.3263352,4.1272764,2.3224335,4.1274672,3.3730505z"/>
	<path class="st0" d="M25.2802505,18.4743729c-0.0000477-1.6524334,0.0171471-3.3051653-0.0117092-4.9570951
		c-0.0075493-0.4320126,0.1203384-0.5249958,0.526125-0.506546c0.7599354,0.0345545,1.5247478,0.0446644,2.2832432-0.0031147
		c0.4539528-0.028594,0.5087585,0.1420012,0.4980469,0.5287485c-0.0262012,0.9461727,0.0070419,1.8939524-0.0167522,2.8402538
		c-0.0085945,0.3419094,0.0826912,0.4457798,0.430954,0.4371529c0.9652195-0.0239124,1.9316483-0.0202103,2.897089-0.0012836
		c0.2978306,0.0058365,0.3742352-0.0849285,0.3692074-0.3742962c-0.0170937-0.983737,0.0065346-1.968215-0.0133553-2.9518452
		c-0.0069733-0.3443975,0.0588913-0.4908495,0.449646-0.4755526c0.8345184,0.0326681,1.6712685,0.0157795,2.5069618,0.0063801
		c0.2501068-0.0028133,0.3982544,0.0072489,0.3969231,0.3412342c-0.0134811,3.3790789-0.011364,6.7582369-0.0023499,10.1373472
		c0.0007286,0.2726517-0.0829582,0.342268-0.3453064,0.3377762c-0.8726883-0.0149422-1.746212-0.0212402-2.6185265,0.002182
		c-0.3379593,0.0090733-0.3896255-0.1250496-0.3861771-0.4188156c0.0139465-1.1881027-0.0054741-2.3766384,0.0130348-3.5646152
		c0.0049858-0.3200665-0.0941544-0.4025497-0.4043427-0.3964577c-0.9654408,0.0189552-1.9317875,0.0205803-2.8971291-0.0007019
		c-0.3304939-0.0072861-0.3988991,0.1102104-0.3948307,0.4148312c0.0158749,1.1880512-0.0044861,2.3766117,0.0137177,3.5646
		c0.0048141,0.31394-0.0816307,0.4086227-0.3979549,0.4005489c-0.8352528-0.0213299-1.6717873-0.0216522-2.507021,0.0000763
		c-0.3197117,0.0083179-0.3997288-0.0905514-0.3967705-0.403574C25.2885933,21.7793217,25.2803001,20.1268063,25.2802505,18.4743729
		z"/>
</g>
</svg>
